<?xml version="1.0" standalone="no"?>
<!DOCTYPE svg PUBLIC "-//W3C//DTD SVG 20010904//EN"
 "http://www.w3.org/TR/2001/REC-SVG-20010904/DTD/svg10.dtd">
<svg version="1.0" xmlns="http://www.w3.org/2000/svg"
 width="512.000000pt" height="512.000000pt" viewBox="0 0 512.000000 512.000000"
 preserveAspectRatio="xMidYMid meet">

<g transform="translate(0.000000,512.000000) scale(0.100000,-0.100000)"
fill="#000000" stroke="none">
<path d="M2452 4823 c-64 -31 -62 -10 -62 -685 0 -675 0 -674 62 -790 17 -32
57 -87 89 -122 33 -35 59 -68 58 -73 0 -4 -39 -42 -86 -83 -144 -126 -512
-497 -634 -640 -340 -395 -542 -734 -635 -1060 l-24 -85 5 85 c40 613 196
1375 355 1725 58 128 51 222 -23 302 -103 112 -266 126 -365 30 -50 -47 -95
-144 -167 -359 -113 -338 -229 -812 -279 -1138 -59 -387 -79 -856 -43 -995 66
-250 244 -454 473 -541 144 -55 103 -53 1677 -54 1611 0 1500 -5 1553 66 56
72 32 203 -54 296 -30 32 -77 61 -181 113 l-141 69 -140 421 -140 420 0 657 0
658 37 32 c204 180 281 292 303 443 5 40 10 312 10 643 0 623 0 622 -56 658
-15 10 -44 19 -64 19 -33 0 -69 -25 -300 -198 l-263 -197 -174 0 -173 0 -243
182 c-307 231 -310 233 -375 201z"/>
</g>
</svg>
